<?xml version="1.0" encoding="UTF-8"?>
<!DOCTYPE svg PUBLIC "-//W3C//DTD SVG 1.1//EN" "http://www.w3.org/Graphics/SVG/1.1/DTD/svg11.dtd">
<svg xmlns="http://www.w3.org/2000/svg" version="1.1" width="1200px" height="400px" style="shape-rendering:geometricPrecision; text-rendering:geometricPrecision; image-rendering:optimizeQuality; fill-rule:evenodd; clip-rule:evenodd" xmlns:xlink="http://www.w3.org/1999/xlink">
<g><path style="opacity:0.989" fill="#cbedfe" d="M 282.5,132.5 C 282.5,176.5 282.5,220.5 282.5,264.5C 250.371,319.906 202.038,345.406 137.5,341C 79.9554,331.994 40.4554,300.494 19,246.5C 1.41349,188.352 13.5802,137.519 55.5,94C 102.299,53.8105 154.632,44.8105 212.5,67C 243.373,80.9091 266.707,102.742 282.5,132.5 Z"/></g>
<g><path style="opacity:1" fill="#0d377a" d="M 968.5,54.5 C 991.905,56.067 1001.74,68.4003 998,91.5C 990.84,106.001 979.34,111.501 963.5,108C 951.41,103.572 945.076,94.9052 944.5,82C 946.001,67.0078 954.001,57.8412 968.5,54.5 Z"/></g>
<g><path style="opacity:0.982" fill="#003277" d="M 1132.5,61.5 C 1146.17,61.5 1159.83,61.5 1173.5,61.5C 1173.5,134.833 1173.5,208.167 1173.5,281.5C 1169.82,281.665 1166.15,281.499 1162.5,281C 1157.85,274.191 1152.85,267.691 1147.5,261.5C 1123.5,283.916 1095.83,290.083 1064.5,280C 1027.47,262.807 1010.3,233.641 1013,192.5C 1017.13,158.036 1035.3,134.536 1067.5,122C 1083.85,117.36 1100.18,117.36 1116.5,122C 1122.49,124.326 1127.65,127.826 1132,132.5C 1132.5,108.836 1132.67,85.169 1132.5,61.5 Z M 1087.5,159.5 C 1111.82,159.745 1126.65,171.745 1132,195.5C 1133.38,219.248 1122.88,235.081 1100.5,243C 1075.81,244.893 1060.64,233.726 1055,209.5C 1051.63,183.177 1062.46,166.51 1087.5,159.5 Z"/></g>
<g><path style="opacity:0.974" fill="#003277" d="M 462.5,118.5 C 488.876,115.901 511.376,123.901 530,142.5C 535.021,136.98 539.854,131.314 544.5,125.5C 548.445,124.509 552.445,124.176 556.5,124.5C 556.5,176.833 556.5,229.167 556.5,281.5C 552.445,281.824 548.445,281.491 544.5,280.5C 539.833,274.167 535.167,267.833 530.5,261.5C 518.98,271.262 505.98,278.429 491.5,283C 455.102,289.658 426.602,277.825 406,247.5C 393.072,221.549 391.405,194.883 401,167.5C 413.125,140.53 433.625,124.197 462.5,118.5 Z M 469.5,159.5 C 493.029,159.357 507.862,170.69 514,193.5C 516.471,218.345 505.971,234.845 482.5,243C 457.145,245.643 441.979,234.476 437,209.5C 433.637,183.156 444.47,166.489 469.5,159.5 Z"/></g>
<g><path style="opacity:0.984" fill="#003277" d="M 657.5,118.5 C 701.384,116.499 730.217,136.166 744,177.5C 750.565,205.111 746.232,230.777 731,254.5C 707.89,281.822 679.056,290.655 644.5,281C 638.554,278.694 632.888,275.861 627.5,272.5C 626.5,295.49 626.167,318.49 626.5,341.5C 612.833,341.5 599.167,341.5 585.5,341.5C 585.5,269.167 585.5,196.833 585.5,124.5C 589.182,124.335 592.848,124.501 596.5,125C 601.369,130.866 606.536,136.366 612,141.5C 625.259,129.954 640.425,122.288 657.5,118.5 Z M 660.5,159.5 C 684.814,158.668 699.647,170.001 705,193.5C 707.748,211.165 702.248,225.665 688.5,237C 665.57,249.058 646.737,244.558 632,223.5C 622.816,202.771 625.982,184.271 641.5,168C 647.268,163.697 653.601,160.864 660.5,159.5 Z"/></g>
<g><path style="opacity:0.984" fill="#003277" d="M 840.5,118.5 C 884.384,116.499 913.217,136.166 927,177.5C 933.565,205.111 929.232,230.777 914,254.5C 890.89,281.822 862.056,290.655 827.5,281C 821.554,278.694 815.888,275.861 810.5,272.5C 809.5,295.49 809.167,318.49 809.5,341.5C 795.833,341.5 782.167,341.5 768.5,341.5C 768.5,269.167 768.5,196.833 768.5,124.5C 772.182,124.335 775.848,124.501 779.5,125C 784.369,130.866 789.536,136.366 795,141.5C 808.259,129.954 823.425,122.288 840.5,118.5 Z M 843.5,159.5 C 867.814,158.668 882.647,170.001 888,193.5C 890.748,211.165 885.248,225.665 871.5,237C 848.57,249.058 829.737,244.558 815,223.5C 805.816,202.771 808.982,184.271 824.5,168C 830.268,163.697 836.601,160.864 843.5,159.5 Z"/></g>
<g><path style="opacity:0.982" fill="#003277" d="M 282.5,264.5 C 282.5,220.5 282.5,176.5 282.5,132.5C 282.5,129.833 282.5,127.167 282.5,124.5C 286.182,124.335 289.848,124.501 293.5,125C 297.312,130.8 301.478,136.3 306,141.5C 315.185,133.824 325.685,128.658 337.5,126C 354.458,124.59 371.458,124.09 388.5,124.5C 388.5,138.167 388.5,151.833 388.5,165.5C 374.496,165.333 360.496,165.5 346.5,166C 335,169.5 327.5,177 324,188.5C 323.5,219.498 323.333,250.498 323.5,281.5C 309.833,281.5 296.167,281.5 282.5,281.5C 282.5,275.833 282.5,270.167 282.5,264.5 Z"/></g>
<g><path style="opacity:1" fill="#023477" d="M 951.5,124.5 C 965.167,124.5 978.833,124.5 992.5,124.5C 992.5,176.833 992.5,229.167 992.5,281.5C 978.833,281.5 965.167,281.5 951.5,281.5C 951.5,229.167 951.5,176.833 951.5,124.5 Z"/></g>
<g><path style="opacity:1" fill="#003377" d="M 133.5,228.5 C 134.498,194.337 134.832,160.004 134.5,125.5C 147.5,125.5 160.5,125.5 173.5,125.5C 173.168,160.004 173.502,194.337 174.5,228.5C 178.346,240.762 186.679,245.929 199.5,244C 207.291,241.05 211.958,235.55 213.5,227.5C 214.498,193.671 214.832,159.671 214.5,125.5C 227.5,125.5 240.5,125.5 253.5,125.5C 253.5,160.5 253.5,195.5 253.5,230.5C 247.475,265.186 226.808,283.186 191.5,284.5C 177.262,283.422 164.596,278.422 153.5,269.5C 136.716,283.277 117.716,287.443 96.5,282C 75.0306,274.866 61.5306,260.366 56,238.5C 54.5373,200.535 54.0373,162.535 54.5,124.5C 67.8333,124.5 81.1667,124.5 94.5,124.5C 94.3333,159.835 94.5,195.168 95,230.5C 102.428,245.534 113.262,248.534 127.5,239.5C 130.809,236.548 132.809,232.881 133.5,228.5 Z"/></g>
<g><path style="opacity:1" fill="#7899bc" d="M 174.5,228.5 C 173.502,194.337 173.168,160.004 173.5,125.5C 160.5,125.5 147.5,125.5 134.5,125.5C 134.832,160.004 134.498,194.337 133.5,228.5C 133.5,193.833 133.5,159.167 133.5,124.5C 147.167,124.5 160.833,124.5 174.5,124.5C 174.5,159.167 174.5,193.833 174.5,228.5 Z"/></g>
<g><path style="opacity:1" fill="#5f80a9" d="M 253.5,230.5 C 253.5,195.5 253.5,160.5 253.5,125.5C 240.5,125.5 227.5,125.5 214.5,125.5C 214.832,159.671 214.498,193.671 213.5,227.5C 213.5,193.167 213.5,158.833 213.5,124.5C 227.167,124.5 240.833,124.5 254.5,124.5C 254.832,160.004 254.498,195.337 253.5,230.5 Z"/></g>
</svg>
