<svg version="1.1" id="Layer_1" xmlns="http://www.w3.org/2000/svg" xmlns:xlink="http://www.w3.org/1999/xlink" x="0px" y="0px"
	 width="100%" viewBox="0 0 1200 400" enable-background="new 0 0 1200 400" xml:space="preserve">
<path fill="#FFFFFF" opacity="1.000000" stroke="none" 
	d="
M774.000000,401.000000 
	C516.000000,401.000000 258.500000,401.000000 1.000000,401.000000 
	C1.000000,267.666656 1.000000,134.333328 1.000000,1.000000 
	C401.000000,1.000000 801.000000,1.000000 1201.000000,1.000000 
	C1201.000000,134.333328 1201.000000,267.666656 1201.000000,401.000000 
	C1058.833374,401.000000 916.666687,401.000000 774.000000,401.000000 
M299.483887,55.447826 
	C297.843719,55.298866 296.203613,55.019917 294.563416,55.019547 
	C201.941589,54.998642 109.319725,55.035606 16.698107,54.898705 
	C12.062074,54.891853 10.897563,56.187294 10.903938,60.741688 
	C11.033360,153.196747 10.999652,245.652023 11.010757,338.107269 
	C11.010971,339.884949 11.157622,341.662598 11.249506,343.747925 
	C13.292768,343.844666 14.919739,343.988953 16.546726,343.989136 
	C109.335136,343.999939 202.123550,344.004578 294.911926,343.953552 
	C296.622040,343.952606 298.331726,343.274811 300.970795,342.991150 
	C590.213318,342.991150 879.455811,342.991150 1169.125977,342.991150 
	C1169.125977,322.711884 1169.125977,302.963593 1169.125977,283.194275 
	C1171.294800,283.029053 1173.039551,282.896149 1174.702881,282.769440 
	C1174.702881,209.317490 1174.702881,136.238953 1174.702881,63.198483 
	C1172.649780,63.018845 1170.896484,62.865444 1169.199829,62.716995 
	C1169.024902,60.279816 1168.876587,58.210632 1168.718018,55.999992 
	C1166.490479,55.999992 1164.669678,55.999992 1162.848877,55.999992 
	C1096.558105,55.999992 1030.267212,55.999992 963.976440,55.999992 
	C744.496887,55.999992 525.017334,55.999783 305.537811,56.003597 
	C303.705750,56.003632 301.873718,56.058098 299.483887,55.447826 
z"/>
<path fill="#003377" opacity="1.000000" stroke="none" 
	d="
M300.041656,56.087154 
	C301.873718,56.058098 303.705750,56.003632 305.537811,56.003597 
	C525.017334,55.999783 744.496887,55.999992 963.976440,55.999992 
	C1030.267212,55.999992 1096.558105,55.999992 1162.848877,55.999992 
	C1164.669678,55.999992 1166.490479,55.999992 1168.718018,55.999992 
	C1168.876587,58.210632 1169.024902,60.279816 1169.199829,62.716995 
	C1170.896484,62.865444 1172.649780,63.018845 1174.702881,63.198483 
	C1174.702881,136.238953 1174.702881,209.317490 1174.702881,282.769440 
	C1173.039551,282.896149 1171.294800,283.029053 1169.125977,283.194275 
	C1169.125977,302.963593 1169.125977,322.711884 1169.125977,342.991150 
	C879.455811,342.991150 590.213318,342.991150 300.488586,342.488892 
	C300.006378,322.398712 300.006378,302.810852 300.006378,283.356628 
	C299.049286,283.156891 298.732880,283.030334 298.418121,283.034332 
	C294.474274,283.084015 291.032257,283.565460 287.090576,285.508667 
	C282.868469,287.590118 276.825531,285.978180 271.203949,285.978180 
	C273.327942,282.859985 275.102417,280.189117 276.943451,277.564941 
	C281.740112,270.727875 284.309357,263.574738 284.197662,254.794296 
	C283.731537,218.149994 283.923523,181.496002 284.072540,144.846375 
	C284.099640,138.182281 283.944916,131.782379 278.598358,125.713661 
	C286.675262,127.041908 295.380768,122.324707 300.041656,132.314453 
	C300.041656,106.905357 300.041656,81.496254 300.041656,56.087154 
M993.000000,180.500000 
	C993.000000,214.299698 993.000000,248.099411 993.000000,281.899109 
	C993.226929,281.897797 993.453918,281.896454 993.680847,281.895142 
	C993.680847,230.298355 993.680847,178.701569 993.680847,127.104790 
	C993.453918,127.103958 993.226929,127.103134 993.000000,127.102303 
	C993.000000,144.568207 993.000000,162.034103 993.000000,180.500000 
z"/>
<path fill="#CBEDFF" opacity="1.000000" stroke="none" 
	d="
M299.762756,55.767490 
	C300.041656,81.496254 300.041656,106.905357 300.041656,132.314453 
	C295.380768,122.324707 286.675262,127.041908 278.598358,125.713661 
	C283.944916,131.782379 284.099640,138.182281 284.072540,144.846375 
	C283.923523,181.496002 283.731537,218.149994 284.197662,254.794296 
	C284.309357,263.574738 281.740112,270.727875 276.943451,277.564941 
	C275.102417,280.189117 273.327942,282.859985 271.203949,285.978180 
	C276.825531,285.978180 282.868469,287.590118 287.090576,285.508667 
	C291.032257,283.565460 294.474274,283.084015 298.418121,283.034332 
	C298.732880,283.030334 299.049286,283.156891 300.006378,283.356628 
	C300.006378,302.810852 300.006378,322.398712 300.023987,342.449707 
	C298.331726,343.274811 296.622040,343.952606 294.911926,343.953552 
	C202.123550,344.004578 109.335136,343.999939 16.546726,343.989136 
	C14.919739,343.988953 13.292768,343.844666 11.249506,343.747925 
	C11.157622,341.662598 11.010971,339.884949 11.010757,338.107269 
	C10.999652,245.652023 11.033360,153.196747 10.903938,60.741688 
	C10.897563,56.187294 12.062074,54.891853 16.698107,54.898705 
	C109.319725,55.035606 201.941589,54.998642 294.563416,55.019547 
	C296.203613,55.019917 297.843719,55.298866 299.762756,55.767490 
M254.932129,234.039780 
	C254.932129,198.275375 254.932129,162.510956 254.932129,126.655952 
	C241.666962,126.655952 228.625397,126.655952 215.259796,126.655952 
	C215.259796,128.863297 215.259796,130.676285 215.259796,132.489273 
	C215.259766,163.483490 215.287170,194.477737 215.245850,225.471909 
	C215.229904,237.437103 206.418228,246.233185 194.866638,245.994614 
	C183.569626,245.761307 175.348373,236.530655 175.330399,223.854553 
	C175.287170,193.360306 175.316345,162.865936 175.316315,132.371628 
	C175.316315,130.455521 175.316315,128.539413 175.316315,126.513596 
	C161.780869,126.513596 149.018585,126.513596 135.683685,126.513596 
	C135.683685,128.544434 135.683685,130.326538 135.683685,132.108643 
	C135.683594,162.936234 135.726685,193.763901 135.662445,224.591354 
	C135.636276,237.154602 127.157501,245.897842 115.477516,246.034027 
	C105.191948,246.153976 95.597694,236.615891 95.812859,224.722870 
	C96.373413,193.738800 96.001450,162.737839 96.001450,131.743622 
	C96.001450,130.000443 96.001442,128.257278 96.001442,126.505447 
	C82.288383,126.505447 69.351883,126.505447 56.134731,126.505447 
	C56.043491,128.180710 55.895489,129.637451 55.894901,131.094269 
	C55.881775,163.588211 55.812759,196.082352 55.904804,228.576035 
	C56.000820,262.471649 89.049141,290.522827 122.692581,285.667511 
	C135.065750,283.881866 145.927170,279.098297 155.303207,271.098114 
	C169.435135,281.433289 180.345596,285.577820 192.958252,286.029877 
	C222.197327,287.077850 249.829102,266.943176 254.932129,234.039780 
z"/>
<path fill="#436797" opacity="1.000000" stroke="none" 
	d="
M993.000000,180.000000 
	C993.000000,162.034103 993.000000,144.568207 993.000000,127.102303 
	C993.226929,127.103134 993.453918,127.103958 993.680847,127.104790 
	C993.680847,178.701569 993.680847,230.298355 993.680847,281.895142 
	C993.453918,281.896454 993.226929,281.897797 993.000000,281.899109 
	C993.000000,248.099411 993.000000,214.299698 993.000000,180.000000 
z"/>
<path fill="#013478" opacity="1.000000" stroke="none" 
	d="
M254.870911,234.487762 
	C249.829102,266.943176 222.197327,287.077850 192.958252,286.029877 
	C180.345596,285.577820 169.435135,281.433289 155.303207,271.098114 
	C145.927170,279.098297 135.065750,283.881866 122.692581,285.667511 
	C89.049141,290.522827 56.000820,262.471649 55.904804,228.576035 
	C55.812759,196.082352 55.881775,163.588211 55.894901,131.094269 
	C55.895489,129.637451 56.043491,128.180710 56.134731,126.505447 
	C69.351883,126.505447 82.288383,126.505447 96.001442,126.505447 
	C96.001442,128.257278 96.001450,130.000443 96.001450,131.743622 
	C96.001450,162.737839 96.373413,193.738800 95.812859,224.722870 
	C95.597694,236.615891 105.191948,246.153976 115.477516,246.034027 
	C127.157501,245.897842 135.636276,237.154602 135.662445,224.591354 
	C135.726685,193.763901 135.683594,162.936234 135.683685,132.108643 
	C135.683685,130.326538 135.683685,128.544434 135.683685,126.513596 
	C149.018585,126.513596 161.780869,126.513596 175.316315,126.513596 
	C175.316315,128.539413 175.316315,130.455521 175.316315,132.371628 
	C175.316345,162.865936 175.287170,193.360306 175.330399,223.854553 
	C175.348373,236.530655 183.569626,245.761307 194.866638,245.994614 
	C206.418228,246.233185 215.229904,237.437103 215.245850,225.471909 
	C215.287170,194.477737 215.259766,163.483490 215.259796,132.489273 
	C215.259796,130.676285 215.259796,128.863297 215.259796,126.655952 
	C228.625397,126.655952 241.666962,126.655952 254.932129,126.655952 
	C254.932129,162.510956 254.932129,198.275375 254.870911,234.487762 
z"/>
</svg>